<mxfile host="Electron" agent="Mozilla/5.0 (Windows NT 10.0; Win64; x64) AppleWebKit/537.36 (KHTML, like Gecko) draw.io/28.0.6 Chrome/138.0.7204.100 Electron/37.2.3 Safari/537.36" version="28.0.6">
  <diagram name="Страница — 1" id="k3vUN1vX6GtRofL0pbK4">
    <mxGraphModel dx="2037" dy="602" grid="1" gridSize="10" guides="1" tooltips="1" connect="1" arrows="1" fold="1" page="1" pageScale="1" pageWidth="1169" pageHeight="827" math="0" shadow="0">
      <root>
        <mxCell id="0" />
        <mxCell id="1" parent="0" />
        <mxCell id="3Auh62VzX7TEnJ0cLqzE-1" value="" style="endArrow=classic;html=1;rounded=0;" edge="1" parent="1">
          <mxGeometry width="50" height="50" relative="1" as="geometry">
            <mxPoint x="80" y="360" as="sourcePoint" />
            <mxPoint x="1120" y="360" as="targetPoint" />
          </mxGeometry>
        </mxCell>
        <mxCell id="3Auh62VzX7TEnJ0cLqzE-2" value="" style="endArrow=classic;html=1;rounded=0;" edge="1" parent="1" source="3Auh62VzX7TEnJ0cLqzE-8">
          <mxGeometry width="50" height="50" relative="1" as="geometry">
            <mxPoint x="760" y="40" as="sourcePoint" />
            <mxPoint x="1080" y="360" as="targetPoint" />
          </mxGeometry>
        </mxCell>
        <mxCell id="3Auh62VzX7TEnJ0cLqzE-3" value="" style="endArrow=classic;html=1;rounded=0;" edge="1" parent="1" source="3Auh62VzX7TEnJ0cLqzE-10">
          <mxGeometry width="50" height="50" relative="1" as="geometry">
            <mxPoint x="760" y="680" as="sourcePoint" />
            <mxPoint x="1080" y="360" as="targetPoint" />
          </mxGeometry>
        </mxCell>
        <mxCell id="3Auh62VzX7TEnJ0cLqzE-4" value="&lt;font style=&quot;font-size: 10px;&quot;&gt;Снижение производительности&lt;/font&gt;" style="triangle;whiteSpace=wrap;html=1;align=left;" vertex="1" parent="1">
          <mxGeometry x="1140" y="280" width="130" height="160" as="geometry" />
        </mxCell>
        <mxCell id="3Auh62VzX7TEnJ0cLqzE-5" value="" style="endArrow=classic;html=1;rounded=0;" edge="1" parent="1" source="3Auh62VzX7TEnJ0cLqzE-7">
          <mxGeometry width="50" height="50" relative="1" as="geometry">
            <mxPoint x="280" y="40" as="sourcePoint" />
            <mxPoint x="600" y="360" as="targetPoint" />
          </mxGeometry>
        </mxCell>
        <mxCell id="3Auh62VzX7TEnJ0cLqzE-6" value="" style="endArrow=classic;html=1;rounded=0;" edge="1" parent="1" source="3Auh62VzX7TEnJ0cLqzE-9">
          <mxGeometry width="50" height="50" relative="1" as="geometry">
            <mxPoint x="180" y="680" as="sourcePoint" />
            <mxPoint x="460" y="360" as="targetPoint" />
          </mxGeometry>
        </mxCell>
        <mxCell id="3Auh62VzX7TEnJ0cLqzE-7" value="Персонал" style="text;html=1;align=center;verticalAlign=middle;whiteSpace=wrap;rounded=0;" vertex="1" parent="1">
          <mxGeometry x="250" y="25" width="60" height="30" as="geometry" />
        </mxCell>
        <mxCell id="3Auh62VzX7TEnJ0cLqzE-8" value="Интеграция" style="text;html=1;align=center;verticalAlign=middle;whiteSpace=wrap;rounded=0;" vertex="1" parent="1">
          <mxGeometry x="730" y="25" width="60" height="30" as="geometry" />
        </mxCell>
        <mxCell id="3Auh62VzX7TEnJ0cLqzE-9" value="Программное обеспечение" style="text;html=1;align=center;verticalAlign=middle;whiteSpace=wrap;rounded=0;" vertex="1" parent="1">
          <mxGeometry x="150" y="665" width="60" height="30" as="geometry" />
        </mxCell>
        <mxCell id="3Auh62VzX7TEnJ0cLqzE-10" value="Процессы" style="text;html=1;align=center;verticalAlign=middle;whiteSpace=wrap;rounded=0;" vertex="1" parent="1">
          <mxGeometry x="730" y="665" width="60" height="30" as="geometry" />
        </mxCell>
        <mxCell id="3Auh62VzX7TEnJ0cLqzE-11" value="" style="endArrow=classic;html=1;rounded=0;" edge="1" parent="1" source="3Auh62VzX7TEnJ0cLqzE-12">
          <mxGeometry width="50" height="50" relative="1" as="geometry">
            <mxPoint x="-150" y="40" as="sourcePoint" />
            <mxPoint x="170" y="360" as="targetPoint" />
          </mxGeometry>
        </mxCell>
        <mxCell id="3Auh62VzX7TEnJ0cLqzE-12" value="Инфраструктура" style="text;html=1;align=center;verticalAlign=middle;whiteSpace=wrap;rounded=0;" vertex="1" parent="1">
          <mxGeometry x="-180" y="25" width="60" height="30" as="geometry" />
        </mxCell>
        <mxCell id="3Auh62VzX7TEnJ0cLqzE-16" value="неэффективные алгоритмы обработки данных" style="text;html=1;align=center;verticalAlign=middle;whiteSpace=wrap;rounded=0;labelBackgroundColor=default;" vertex="1" parent="1">
          <mxGeometry x="300" y="414" width="150" height="80" as="geometry" />
        </mxCell>
        <mxCell id="3Auh62VzX7TEnJ0cLqzE-18" value="узкие места в сетевых соединениях" style="text;html=1;align=center;verticalAlign=middle;whiteSpace=wrap;rounded=0;labelBackgroundColor=default;" vertex="1" parent="1">
          <mxGeometry x="-50" y="200" width="150" height="80" as="geometry" />
        </mxCell>
        <mxCell id="3Auh62VzX7TEnJ0cLqzE-22" value="недостаточное покрытие нагрузочным тестированием" style="text;html=1;align=center;verticalAlign=middle;whiteSpace=wrap;rounded=0;labelBackgroundColor=default;" vertex="1" parent="1">
          <mxGeometry x="920" y="410" width="150" height="80" as="geometry" />
        </mxCell>
        <mxCell id="3Auh62VzX7TEnJ0cLqzE-23" value="некорректная балансировка нагрузки" style="text;html=1;align=center;verticalAlign=middle;whiteSpace=wrap;rounded=0;labelBackgroundColor=default;" vertex="1" parent="1">
          <mxGeometry x="800" y="530" width="150" height="80" as="geometry" />
        </mxCell>
        <mxCell id="3Auh62VzX7TEnJ0cLqzE-24" value="нехватка квалификации команды в работе с выбранным стеком технологий" style="text;html=1;align=center;verticalAlign=middle;whiteSpace=wrap;rounded=0;labelBackgroundColor=default;" vertex="1" parent="1">
          <mxGeometry x="360" y="140" width="150" height="80" as="geometry" />
        </mxCell>
        <mxCell id="3Auh62VzX7TEnJ0cLqzE-26" value="нехватка персонала" style="text;html=1;align=center;verticalAlign=middle;whiteSpace=wrap;rounded=0;labelBackgroundColor=default;" vertex="1" parent="1">
          <mxGeometry x="285" y="60" width="150" height="80" as="geometry" />
        </mxCell>
        <mxCell id="3Auh62VzX7TEnJ0cLqzE-27" value="ограниченные вычислительные ресурсы" style="text;html=1;align=center;verticalAlign=middle;whiteSpace=wrap;rounded=0;labelBackgroundColor=default;" vertex="1" parent="1">
          <mxGeometry x="-170" y="70" width="150" height="80" as="geometry" />
        </mxCell>
        <mxCell id="3Auh62VzX7TEnJ0cLqzE-29" value="непроизводительные (медленные) сторонние АПИ" style="text;html=1;align=center;verticalAlign=middle;whiteSpace=wrap;rounded=0;labelBackgroundColor=default;" vertex="1" parent="1">
          <mxGeometry x="760" y="90" width="150" height="80" as="geometry" />
        </mxCell>
        <mxCell id="3Auh62VzX7TEnJ0cLqzE-30" value="плохие коммуникации в командах" style="text;html=1;align=center;verticalAlign=middle;whiteSpace=wrap;rounded=0;labelBackgroundColor=default;" vertex="1" parent="1">
          <mxGeometry x="450" y="230" width="150" height="80" as="geometry" />
        </mxCell>
        <mxCell id="3Auh62VzX7TEnJ0cLqzE-31" value="немасштабируемые сервисы" style="text;html=1;align=center;verticalAlign=middle;whiteSpace=wrap;rounded=0;labelBackgroundColor=default;" vertex="1" parent="1">
          <mxGeometry x="220" y="530" width="150" height="80" as="geometry" />
        </mxCell>
        <mxCell id="3Auh62VzX7TEnJ0cLqzE-32" value="непроизводительные (медленные) legacy-решения" style="text;html=1;align=center;verticalAlign=middle;whiteSpace=wrap;rounded=0;labelBackgroundColor=default;" vertex="1" parent="1">
          <mxGeometry x="900" y="210" width="150" height="80" as="geometry" />
        </mxCell>
        <mxCell id="3Auh62VzX7TEnJ0cLqzE-34" value="удаленное расположение серверов (высокий пинг)" style="text;html=1;align=center;verticalAlign=middle;whiteSpace=wrap;rounded=0;labelBackgroundColor=default;" vertex="1" parent="1">
          <mxGeometry x="-80" y="130" width="150" height="80" as="geometry" />
        </mxCell>
        <mxCell id="3Auh62VzX7TEnJ0cLqzE-35" value=" Выявленные проблемы и предлагаемые решения" style="shape=table;startSize=30;container=1;collapsible=0;childLayout=tableLayout;strokeColor=default;fontSize=12;" vertex="1" parent="1">
          <mxGeometry x="-200" y="760" width="1580" height="590" as="geometry" />
        </mxCell>
        <mxCell id="3Auh62VzX7TEnJ0cLqzE-36" value="" style="shape=tableRow;horizontal=0;startSize=0;swimlaneHead=0;swimlaneBody=0;strokeColor=inherit;top=0;left=0;bottom=0;right=0;collapsible=0;dropTarget=0;fillColor=none;points=[[0,0.5],[1,0.5]];portConstraint=eastwest;fontSize=12;" vertex="1" parent="3Auh62VzX7TEnJ0cLqzE-35">
          <mxGeometry y="30" width="1580" height="40" as="geometry" />
        </mxCell>
        <mxCell id="3Auh62VzX7TEnJ0cLqzE-37" value="Категория" style="shape=partialRectangle;html=1;whiteSpace=wrap;connectable=0;strokeColor=inherit;overflow=hidden;fillColor=none;top=0;left=0;bottom=0;right=0;pointerEvents=1;fontSize=12;" vertex="1" parent="3Auh62VzX7TEnJ0cLqzE-36">
          <mxGeometry width="130" height="40" as="geometry">
            <mxRectangle width="130" height="40" as="alternateBounds" />
          </mxGeometry>
        </mxCell>
        <mxCell id="3Auh62VzX7TEnJ0cLqzE-38" value="Приоритет" style="shape=partialRectangle;html=1;whiteSpace=wrap;connectable=0;strokeColor=inherit;overflow=hidden;fillColor=none;top=0;left=0;bottom=0;right=0;pointerEvents=1;fontSize=12;" vertex="1" parent="3Auh62VzX7TEnJ0cLqzE-36">
          <mxGeometry x="130" width="110" height="40" as="geometry">
            <mxRectangle width="110" height="40" as="alternateBounds" />
          </mxGeometry>
        </mxCell>
        <mxCell id="3Auh62VzX7TEnJ0cLqzE-39" value="Проблема" style="shape=partialRectangle;html=1;whiteSpace=wrap;connectable=0;strokeColor=inherit;overflow=hidden;fillColor=none;top=0;left=0;bottom=0;right=0;pointerEvents=1;fontSize=12;" vertex="1" parent="3Auh62VzX7TEnJ0cLqzE-36">
          <mxGeometry x="240" width="620" height="40" as="geometry">
            <mxRectangle width="620" height="40" as="alternateBounds" />
          </mxGeometry>
        </mxCell>
        <mxCell id="3Auh62VzX7TEnJ0cLqzE-64" value="Решение" style="shape=partialRectangle;html=1;whiteSpace=wrap;connectable=0;strokeColor=inherit;overflow=hidden;fillColor=none;top=0;left=0;bottom=0;right=0;pointerEvents=1;fontSize=12;" vertex="1" parent="3Auh62VzX7TEnJ0cLqzE-36">
          <mxGeometry x="860" width="720" height="40" as="geometry">
            <mxRectangle width="720" height="40" as="alternateBounds" />
          </mxGeometry>
        </mxCell>
        <mxCell id="3Auh62VzX7TEnJ0cLqzE-40" value="" style="shape=tableRow;horizontal=0;startSize=0;swimlaneHead=0;swimlaneBody=0;strokeColor=inherit;top=0;left=0;bottom=0;right=0;collapsible=0;dropTarget=0;fillColor=none;points=[[0,0.5],[1,0.5]];portConstraint=eastwest;fontSize=12;" vertex="1" parent="3Auh62VzX7TEnJ0cLqzE-35">
          <mxGeometry y="70" width="1580" height="40" as="geometry" />
        </mxCell>
        <mxCell id="3Auh62VzX7TEnJ0cLqzE-41" value="Персонал" style="shape=partialRectangle;html=1;whiteSpace=wrap;connectable=0;strokeColor=inherit;overflow=hidden;fillColor=none;top=0;left=0;bottom=0;right=0;pointerEvents=1;fontSize=12;" vertex="1" parent="3Auh62VzX7TEnJ0cLqzE-40">
          <mxGeometry width="130" height="40" as="geometry">
            <mxRectangle width="130" height="40" as="alternateBounds" />
          </mxGeometry>
        </mxCell>
        <mxCell id="3Auh62VzX7TEnJ0cLqzE-42" value="Высокий" style="shape=partialRectangle;html=1;whiteSpace=wrap;connectable=0;strokeColor=inherit;overflow=hidden;fillColor=none;top=0;left=0;bottom=0;right=0;pointerEvents=1;fontSize=12;" vertex="1" parent="3Auh62VzX7TEnJ0cLqzE-40">
          <mxGeometry x="130" width="110" height="40" as="geometry">
            <mxRectangle width="110" height="40" as="alternateBounds" />
          </mxGeometry>
        </mxCell>
        <mxCell id="3Auh62VzX7TEnJ0cLqzE-43" value="Нехватка персонала. Нехватка квалифицированных специалистов, которые разрабывают, сопровождают масштабируемые производительные системы.&amp;nbsp;" style="shape=partialRectangle;html=1;whiteSpace=wrap;connectable=0;strokeColor=inherit;overflow=hidden;fillColor=none;top=0;left=0;bottom=0;right=0;pointerEvents=1;fontSize=12;" vertex="1" parent="3Auh62VzX7TEnJ0cLqzE-40">
          <mxGeometry x="240" width="620" height="40" as="geometry">
            <mxRectangle width="620" height="40" as="alternateBounds" />
          </mxGeometry>
        </mxCell>
        <mxCell id="3Auh62VzX7TEnJ0cLqzE-65" value="Заранее обсудить с руководством и со специалистами по персоналу вопрос кадров, оценить требуемое количество специалистов, их квалификацию и компетенцию. Сроки и этапы найма." style="shape=partialRectangle;html=1;whiteSpace=wrap;connectable=0;strokeColor=inherit;overflow=hidden;fillColor=none;top=0;left=0;bottom=0;right=0;pointerEvents=1;fontSize=12;" vertex="1" parent="3Auh62VzX7TEnJ0cLqzE-40">
          <mxGeometry x="860" width="720" height="40" as="geometry">
            <mxRectangle width="720" height="40" as="alternateBounds" />
          </mxGeometry>
        </mxCell>
        <mxCell id="3Auh62VzX7TEnJ0cLqzE-44" value="" style="shape=tableRow;horizontal=0;startSize=0;swimlaneHead=0;swimlaneBody=0;strokeColor=inherit;top=0;left=0;bottom=0;right=0;collapsible=0;dropTarget=0;fillColor=none;points=[[0,0.5],[1,0.5]];portConstraint=eastwest;fontSize=12;" vertex="1" parent="3Auh62VzX7TEnJ0cLqzE-35">
          <mxGeometry y="110" width="1580" height="40" as="geometry" />
        </mxCell>
        <mxCell id="3Auh62VzX7TEnJ0cLqzE-45" value="Персонал" style="shape=partialRectangle;html=1;whiteSpace=wrap;connectable=0;strokeColor=inherit;overflow=hidden;fillColor=none;top=0;left=0;bottom=0;right=0;pointerEvents=1;fontSize=12;" vertex="1" parent="3Auh62VzX7TEnJ0cLqzE-44">
          <mxGeometry width="130" height="40" as="geometry">
            <mxRectangle width="130" height="40" as="alternateBounds" />
          </mxGeometry>
        </mxCell>
        <mxCell id="3Auh62VzX7TEnJ0cLqzE-46" value="Высокий" style="shape=partialRectangle;html=1;whiteSpace=wrap;connectable=0;strokeColor=inherit;overflow=hidden;fillColor=none;top=0;left=0;bottom=0;right=0;pointerEvents=1;fontSize=12;" vertex="1" parent="3Auh62VzX7TEnJ0cLqzE-44">
          <mxGeometry x="130" width="110" height="40" as="geometry">
            <mxRectangle width="110" height="40" as="alternateBounds" />
          </mxGeometry>
        </mxCell>
        <mxCell id="3Auh62VzX7TEnJ0cLqzE-47" value="Нехватка квалификации команды в работе с выбранным стеком технологий. Это могут быть сотрудники, которые были приняты до миграции и вновь принятые." style="shape=partialRectangle;html=1;whiteSpace=wrap;connectable=0;strokeColor=inherit;overflow=hidden;fillColor=none;top=0;left=0;bottom=0;right=0;pointerEvents=1;fontSize=12;" vertex="1" parent="3Auh62VzX7TEnJ0cLqzE-44">
          <mxGeometry x="240" width="620" height="40" as="geometry">
            <mxRectangle width="620" height="40" as="alternateBounds" />
          </mxGeometry>
        </mxCell>
        <mxCell id="3Auh62VzX7TEnJ0cLqzE-66" value="Провести обучение сотрудников. Если не хватает квалификации у вновь принятых сотрудников, то скорректировать требования и процесс найма." style="shape=partialRectangle;html=1;whiteSpace=wrap;connectable=0;strokeColor=inherit;overflow=hidden;fillColor=none;top=0;left=0;bottom=0;right=0;pointerEvents=1;fontSize=12;" vertex="1" parent="3Auh62VzX7TEnJ0cLqzE-44">
          <mxGeometry x="860" width="720" height="40" as="geometry">
            <mxRectangle width="720" height="40" as="alternateBounds" />
          </mxGeometry>
        </mxCell>
        <mxCell id="3Auh62VzX7TEnJ0cLqzE-67" style="shape=tableRow;horizontal=0;startSize=0;swimlaneHead=0;swimlaneBody=0;strokeColor=inherit;top=0;left=0;bottom=0;right=0;collapsible=0;dropTarget=0;fillColor=none;points=[[0,0.5],[1,0.5]];portConstraint=eastwest;fontSize=12;" vertex="1" parent="3Auh62VzX7TEnJ0cLqzE-35">
          <mxGeometry y="150" width="1580" height="40" as="geometry" />
        </mxCell>
        <mxCell id="3Auh62VzX7TEnJ0cLqzE-68" value="Персонал" style="shape=partialRectangle;html=1;whiteSpace=wrap;connectable=0;strokeColor=inherit;overflow=hidden;fillColor=none;top=0;left=0;bottom=0;right=0;pointerEvents=1;fontSize=12;" vertex="1" parent="3Auh62VzX7TEnJ0cLqzE-67">
          <mxGeometry width="130" height="40" as="geometry">
            <mxRectangle width="130" height="40" as="alternateBounds" />
          </mxGeometry>
        </mxCell>
        <mxCell id="3Auh62VzX7TEnJ0cLqzE-69" value="Средний" style="shape=partialRectangle;html=1;whiteSpace=wrap;connectable=0;strokeColor=inherit;overflow=hidden;fillColor=none;top=0;left=0;bottom=0;right=0;pointerEvents=1;fontSize=12;" vertex="1" parent="3Auh62VzX7TEnJ0cLqzE-67">
          <mxGeometry x="130" width="110" height="40" as="geometry">
            <mxRectangle width="110" height="40" as="alternateBounds" />
          </mxGeometry>
        </mxCell>
        <mxCell id="3Auh62VzX7TEnJ0cLqzE-70" value="&lt;span style=&quot;background-color: rgb(255, 255, 255);&quot;&gt;Плохие коммуникации в командах. Коммуникации не налажены, сотрудники не знают друг друга, конфликты.&lt;/span&gt;" style="shape=partialRectangle;html=1;whiteSpace=wrap;connectable=0;strokeColor=inherit;overflow=hidden;fillColor=none;top=0;left=0;bottom=0;right=0;pointerEvents=1;fontSize=12;" vertex="1" parent="3Auh62VzX7TEnJ0cLqzE-67">
          <mxGeometry x="240" width="620" height="40" as="geometry">
            <mxRectangle width="620" height="40" as="alternateBounds" />
          </mxGeometry>
        </mxCell>
        <mxCell id="3Auh62VzX7TEnJ0cLqzE-71" value="Проводить совместные мероприятия, корпоративы, тим билдниги, тимлиды проводят стендап митинги, one-on-one и т.д." style="shape=partialRectangle;html=1;whiteSpace=wrap;connectable=0;strokeColor=inherit;overflow=hidden;fillColor=none;top=0;left=0;bottom=0;right=0;pointerEvents=1;fontSize=12;" vertex="1" parent="3Auh62VzX7TEnJ0cLqzE-67">
          <mxGeometry x="860" width="720" height="40" as="geometry">
            <mxRectangle width="720" height="40" as="alternateBounds" />
          </mxGeometry>
        </mxCell>
        <mxCell id="3Auh62VzX7TEnJ0cLqzE-72" style="shape=tableRow;horizontal=0;startSize=0;swimlaneHead=0;swimlaneBody=0;strokeColor=inherit;top=0;left=0;bottom=0;right=0;collapsible=0;dropTarget=0;fillColor=none;points=[[0,0.5],[1,0.5]];portConstraint=eastwest;fontSize=12;" vertex="1" parent="3Auh62VzX7TEnJ0cLqzE-35">
          <mxGeometry y="190" width="1580" height="40" as="geometry" />
        </mxCell>
        <mxCell id="3Auh62VzX7TEnJ0cLqzE-73" value="Программное обеспечение" style="shape=partialRectangle;html=1;whiteSpace=wrap;connectable=0;strokeColor=inherit;overflow=hidden;fillColor=none;top=0;left=0;bottom=0;right=0;pointerEvents=1;fontSize=12;" vertex="1" parent="3Auh62VzX7TEnJ0cLqzE-72">
          <mxGeometry width="130" height="40" as="geometry">
            <mxRectangle width="130" height="40" as="alternateBounds" />
          </mxGeometry>
        </mxCell>
        <mxCell id="3Auh62VzX7TEnJ0cLqzE-74" value="Высокий" style="shape=partialRectangle;html=1;whiteSpace=wrap;connectable=0;strokeColor=inherit;overflow=hidden;fillColor=none;top=0;left=0;bottom=0;right=0;pointerEvents=1;fontSize=12;" vertex="1" parent="3Auh62VzX7TEnJ0cLqzE-72">
          <mxGeometry x="130" width="110" height="40" as="geometry">
            <mxRectangle width="110" height="40" as="alternateBounds" />
          </mxGeometry>
        </mxCell>
        <mxCell id="3Auh62VzX7TEnJ0cLqzE-75" value="&lt;span style=&quot;background-color: rgb(255, 255, 255);&quot;&gt;Немасштабируемые сервисы. Сервисы спроектированы/разработаны немасштабируемые или заложена недостаточная масштабируемость (вертикальная, когда уже требуется горизонтальная)&lt;/span&gt;" style="shape=partialRectangle;html=1;whiteSpace=wrap;connectable=0;strokeColor=inherit;overflow=hidden;fillColor=none;top=0;left=0;bottom=0;right=0;pointerEvents=1;fontSize=12;" vertex="1" parent="3Auh62VzX7TEnJ0cLqzE-72">
          <mxGeometry x="240" width="620" height="40" as="geometry">
            <mxRectangle width="620" height="40" as="alternateBounds" />
          </mxGeometry>
        </mxCell>
        <mxCell id="3Auh62VzX7TEnJ0cLqzE-76" value="Определить требования к масштабируемости каждого сервиса, контролировать реализацию и тестирование на соблюдение этих требований." style="shape=partialRectangle;html=1;whiteSpace=wrap;connectable=0;strokeColor=inherit;overflow=hidden;fillColor=none;top=0;left=0;bottom=0;right=0;pointerEvents=1;fontSize=12;" vertex="1" parent="3Auh62VzX7TEnJ0cLqzE-72">
          <mxGeometry x="860" width="720" height="40" as="geometry">
            <mxRectangle width="720" height="40" as="alternateBounds" />
          </mxGeometry>
        </mxCell>
        <mxCell id="3Auh62VzX7TEnJ0cLqzE-77" style="shape=tableRow;horizontal=0;startSize=0;swimlaneHead=0;swimlaneBody=0;strokeColor=inherit;top=0;left=0;bottom=0;right=0;collapsible=0;dropTarget=0;fillColor=none;points=[[0,0.5],[1,0.5]];portConstraint=eastwest;fontSize=12;" vertex="1" parent="3Auh62VzX7TEnJ0cLqzE-35">
          <mxGeometry y="230" width="1580" height="40" as="geometry" />
        </mxCell>
        <mxCell id="3Auh62VzX7TEnJ0cLqzE-78" value="Программное обеспечение" style="shape=partialRectangle;html=1;whiteSpace=wrap;connectable=0;strokeColor=inherit;overflow=hidden;fillColor=none;top=0;left=0;bottom=0;right=0;pointerEvents=1;fontSize=12;" vertex="1" parent="3Auh62VzX7TEnJ0cLqzE-77">
          <mxGeometry width="130" height="40" as="geometry">
            <mxRectangle width="130" height="40" as="alternateBounds" />
          </mxGeometry>
        </mxCell>
        <mxCell id="3Auh62VzX7TEnJ0cLqzE-79" value="Низкий" style="shape=partialRectangle;html=1;whiteSpace=wrap;connectable=0;strokeColor=inherit;overflow=hidden;fillColor=none;top=0;left=0;bottom=0;right=0;pointerEvents=1;fontSize=12;" vertex="1" parent="3Auh62VzX7TEnJ0cLqzE-77">
          <mxGeometry x="130" width="110" height="40" as="geometry">
            <mxRectangle width="110" height="40" as="alternateBounds" />
          </mxGeometry>
        </mxCell>
        <mxCell id="3Auh62VzX7TEnJ0cLqzE-80" value="Неэффективные алгоритмы обработки данных. При разработке были внедрены неэффективные алгоритмы обработки данных." style="shape=partialRectangle;html=1;whiteSpace=wrap;connectable=0;strokeColor=inherit;overflow=hidden;fillColor=none;top=0;left=0;bottom=0;right=0;pointerEvents=1;fontSize=12;" vertex="1" parent="3Auh62VzX7TEnJ0cLqzE-77">
          <mxGeometry x="240" width="620" height="40" as="geometry">
            <mxRectangle width="620" height="40" as="alternateBounds" />
          </mxGeometry>
        </mxCell>
        <mxCell id="3Auh62VzX7TEnJ0cLqzE-81" value="Высоконагруженные сервисы должны разрабываться программистами с соответствующим уровнем квалификации. Проводить оптимизацию по факту обнаружения неэффективных алгоритмов." style="shape=partialRectangle;html=1;whiteSpace=wrap;connectable=0;strokeColor=inherit;overflow=hidden;fillColor=none;top=0;left=0;bottom=0;right=0;pointerEvents=1;fontSize=12;" vertex="1" parent="3Auh62VzX7TEnJ0cLqzE-77">
          <mxGeometry x="860" width="720" height="40" as="geometry">
            <mxRectangle width="720" height="40" as="alternateBounds" />
          </mxGeometry>
        </mxCell>
        <mxCell id="3Auh62VzX7TEnJ0cLqzE-82" style="shape=tableRow;horizontal=0;startSize=0;swimlaneHead=0;swimlaneBody=0;strokeColor=inherit;top=0;left=0;bottom=0;right=0;collapsible=0;dropTarget=0;fillColor=none;points=[[0,0.5],[1,0.5]];portConstraint=eastwest;fontSize=12;" vertex="1" parent="3Auh62VzX7TEnJ0cLqzE-35">
          <mxGeometry y="270" width="1580" height="40" as="geometry" />
        </mxCell>
        <mxCell id="3Auh62VzX7TEnJ0cLqzE-83" value="Инфраструктура" style="shape=partialRectangle;html=1;whiteSpace=wrap;connectable=0;strokeColor=inherit;overflow=hidden;fillColor=none;top=0;left=0;bottom=0;right=0;pointerEvents=1;fontSize=12;" vertex="1" parent="3Auh62VzX7TEnJ0cLqzE-82">
          <mxGeometry width="130" height="40" as="geometry">
            <mxRectangle width="130" height="40" as="alternateBounds" />
          </mxGeometry>
        </mxCell>
        <mxCell id="3Auh62VzX7TEnJ0cLqzE-84" value="Высокий" style="shape=partialRectangle;html=1;whiteSpace=wrap;connectable=0;strokeColor=inherit;overflow=hidden;fillColor=none;top=0;left=0;bottom=0;right=0;pointerEvents=1;fontSize=12;" vertex="1" parent="3Auh62VzX7TEnJ0cLqzE-82">
          <mxGeometry x="130" width="110" height="40" as="geometry">
            <mxRectangle width="110" height="40" as="alternateBounds" />
          </mxGeometry>
        </mxCell>
        <mxCell id="3Auh62VzX7TEnJ0cLqzE-85" value="&lt;span style=&quot;background-color: rgb(255, 255, 255);&quot;&gt;Удаленное расположение серверов (высокий пинг). Не учитывалось при проектировании архитектуры.&lt;/span&gt;" style="shape=partialRectangle;html=1;whiteSpace=wrap;connectable=0;strokeColor=inherit;overflow=hidden;fillColor=none;top=0;left=0;bottom=0;right=0;pointerEvents=1;fontSize=12;" vertex="1" parent="3Auh62VzX7TEnJ0cLqzE-82">
          <mxGeometry x="240" width="620" height="40" as="geometry">
            <mxRectangle width="620" height="40" as="alternateBounds" />
          </mxGeometry>
        </mxCell>
        <mxCell id="3Auh62VzX7TEnJ0cLqzE-86" value="Заранее должны быть определены требования и заложены соответствующие архитектурные решения (региональные ЦОДы, в самих офисах и т.д.)" style="shape=partialRectangle;html=1;whiteSpace=wrap;connectable=0;strokeColor=inherit;overflow=hidden;fillColor=none;top=0;left=0;bottom=0;right=0;pointerEvents=1;fontSize=12;" vertex="1" parent="3Auh62VzX7TEnJ0cLqzE-82">
          <mxGeometry x="860" width="720" height="40" as="geometry">
            <mxRectangle width="720" height="40" as="alternateBounds" />
          </mxGeometry>
        </mxCell>
        <mxCell id="3Auh62VzX7TEnJ0cLqzE-87" style="shape=tableRow;horizontal=0;startSize=0;swimlaneHead=0;swimlaneBody=0;strokeColor=inherit;top=0;left=0;bottom=0;right=0;collapsible=0;dropTarget=0;fillColor=none;points=[[0,0.5],[1,0.5]];portConstraint=eastwest;fontSize=12;" vertex="1" parent="3Auh62VzX7TEnJ0cLqzE-35">
          <mxGeometry y="310" width="1580" height="40" as="geometry" />
        </mxCell>
        <mxCell id="3Auh62VzX7TEnJ0cLqzE-88" value="Инфраструктура" style="shape=partialRectangle;html=1;whiteSpace=wrap;connectable=0;strokeColor=inherit;overflow=hidden;fillColor=none;top=0;left=0;bottom=0;right=0;pointerEvents=1;fontSize=12;" vertex="1" parent="3Auh62VzX7TEnJ0cLqzE-87">
          <mxGeometry width="130" height="40" as="geometry">
            <mxRectangle width="130" height="40" as="alternateBounds" />
          </mxGeometry>
        </mxCell>
        <mxCell id="3Auh62VzX7TEnJ0cLqzE-89" value="Высокий" style="shape=partialRectangle;html=1;whiteSpace=wrap;connectable=0;strokeColor=inherit;overflow=hidden;fillColor=none;top=0;left=0;bottom=0;right=0;pointerEvents=1;fontSize=12;" vertex="1" parent="3Auh62VzX7TEnJ0cLqzE-87">
          <mxGeometry x="130" width="110" height="40" as="geometry">
            <mxRectangle width="110" height="40" as="alternateBounds" />
          </mxGeometry>
        </mxCell>
        <mxCell id="3Auh62VzX7TEnJ0cLqzE-90" value="&lt;span style=&quot;background-color: rgb(255, 255, 255);&quot;&gt;Немасштабируемые инфрастуктурные элементы. СУБД, compute сервера, брокеры сообщений и т.д.&lt;/span&gt;" style="shape=partialRectangle;html=1;whiteSpace=wrap;connectable=0;strokeColor=inherit;overflow=hidden;fillColor=none;top=0;left=0;bottom=0;right=0;pointerEvents=1;fontSize=12;" vertex="1" parent="3Auh62VzX7TEnJ0cLqzE-87">
          <mxGeometry x="240" width="620" height="40" as="geometry">
            <mxRectangle width="620" height="40" as="alternateBounds" />
          </mxGeometry>
        </mxCell>
        <mxCell id="3Auh62VzX7TEnJ0cLqzE-91" value="Заранее должны быть определены требования и заложены соответствующие архитектурные решения (горизонтально-масштабируемые СУБД, автоскейлинг группы и т.д.)" style="shape=partialRectangle;html=1;whiteSpace=wrap;connectable=0;strokeColor=inherit;overflow=hidden;fillColor=none;top=0;left=0;bottom=0;right=0;pointerEvents=1;fontSize=12;" vertex="1" parent="3Auh62VzX7TEnJ0cLqzE-87">
          <mxGeometry x="860" width="720" height="40" as="geometry">
            <mxRectangle width="720" height="40" as="alternateBounds" />
          </mxGeometry>
        </mxCell>
        <mxCell id="3Auh62VzX7TEnJ0cLqzE-92" style="shape=tableRow;horizontal=0;startSize=0;swimlaneHead=0;swimlaneBody=0;strokeColor=inherit;top=0;left=0;bottom=0;right=0;collapsible=0;dropTarget=0;fillColor=none;points=[[0,0.5],[1,0.5]];portConstraint=eastwest;fontSize=12;" vertex="1" parent="3Auh62VzX7TEnJ0cLqzE-35">
          <mxGeometry y="350" width="1580" height="40" as="geometry" />
        </mxCell>
        <mxCell id="3Auh62VzX7TEnJ0cLqzE-93" value="Инфраструктура" style="shape=partialRectangle;html=1;whiteSpace=wrap;connectable=0;strokeColor=inherit;overflow=hidden;fillColor=none;top=0;left=0;bottom=0;right=0;pointerEvents=1;fontSize=12;" vertex="1" parent="3Auh62VzX7TEnJ0cLqzE-92">
          <mxGeometry width="130" height="40" as="geometry">
            <mxRectangle width="130" height="40" as="alternateBounds" />
          </mxGeometry>
        </mxCell>
        <mxCell id="3Auh62VzX7TEnJ0cLqzE-94" value="Средний" style="shape=partialRectangle;html=1;whiteSpace=wrap;connectable=0;strokeColor=inherit;overflow=hidden;fillColor=none;top=0;left=0;bottom=0;right=0;pointerEvents=1;fontSize=12;" vertex="1" parent="3Auh62VzX7TEnJ0cLqzE-92">
          <mxGeometry x="130" width="110" height="40" as="geometry">
            <mxRectangle width="110" height="40" as="alternateBounds" />
          </mxGeometry>
        </mxCell>
        <mxCell id="3Auh62VzX7TEnJ0cLqzE-95" value="&lt;span style=&quot;background-color: rgb(255, 255, 255);&quot;&gt;Ограниченные вычислительные ресурсы.&lt;/span&gt;" style="shape=partialRectangle;html=1;whiteSpace=wrap;connectable=0;strokeColor=inherit;overflow=hidden;fillColor=none;top=0;left=0;bottom=0;right=0;pointerEvents=1;fontSize=12;" vertex="1" parent="3Auh62VzX7TEnJ0cLqzE-92">
          <mxGeometry x="240" width="620" height="40" as="geometry">
            <mxRectangle width="620" height="40" as="alternateBounds" />
          </mxGeometry>
        </mxCell>
        <mxCell id="3Auh62VzX7TEnJ0cLqzE-96" value="Надо провести оценку нагрузки и заложить бюджеты на достаточное количество вычислительных ресурсов." style="shape=partialRectangle;html=1;whiteSpace=wrap;connectable=0;strokeColor=inherit;overflow=hidden;fillColor=none;top=0;left=0;bottom=0;right=0;pointerEvents=1;fontSize=12;" vertex="1" parent="3Auh62VzX7TEnJ0cLqzE-92">
          <mxGeometry x="860" width="720" height="40" as="geometry">
            <mxRectangle width="720" height="40" as="alternateBounds" />
          </mxGeometry>
        </mxCell>
        <mxCell id="3Auh62VzX7TEnJ0cLqzE-98" style="shape=tableRow;horizontal=0;startSize=0;swimlaneHead=0;swimlaneBody=0;strokeColor=inherit;top=0;left=0;bottom=0;right=0;collapsible=0;dropTarget=0;fillColor=none;points=[[0,0.5],[1,0.5]];portConstraint=eastwest;fontSize=12;" vertex="1" parent="3Auh62VzX7TEnJ0cLqzE-35">
          <mxGeometry y="390" width="1580" height="40" as="geometry" />
        </mxCell>
        <mxCell id="3Auh62VzX7TEnJ0cLqzE-99" value="Инфраструктура" style="shape=partialRectangle;html=1;whiteSpace=wrap;connectable=0;strokeColor=inherit;overflow=hidden;fillColor=none;top=0;left=0;bottom=0;right=0;pointerEvents=1;fontSize=12;" vertex="1" parent="3Auh62VzX7TEnJ0cLqzE-98">
          <mxGeometry width="130" height="40" as="geometry">
            <mxRectangle width="130" height="40" as="alternateBounds" />
          </mxGeometry>
        </mxCell>
        <mxCell id="3Auh62VzX7TEnJ0cLqzE-100" value="Высокий/Средний" style="shape=partialRectangle;html=1;whiteSpace=wrap;connectable=0;strokeColor=inherit;overflow=hidden;fillColor=none;top=0;left=0;bottom=0;right=0;pointerEvents=1;fontSize=12;" vertex="1" parent="3Auh62VzX7TEnJ0cLqzE-98">
          <mxGeometry x="130" width="110" height="40" as="geometry">
            <mxRectangle width="110" height="40" as="alternateBounds" />
          </mxGeometry>
        </mxCell>
        <mxCell id="3Auh62VzX7TEnJ0cLqzE-101" value="&lt;span style=&quot;background-color: rgb(255, 255, 255);&quot;&gt;Узкие места в сетевых соединениях. Это может быть недостаточная пропускная способность сети (критично), недостаточное количество оборудования или ошибки в конфигурации оборудования.&amp;nbsp;&lt;/span&gt;" style="shape=partialRectangle;html=1;whiteSpace=wrap;connectable=0;strokeColor=inherit;overflow=hidden;fillColor=none;top=0;left=0;bottom=0;right=0;pointerEvents=1;fontSize=12;" vertex="1" parent="3Auh62VzX7TEnJ0cLqzE-98">
          <mxGeometry x="240" width="620" height="40" as="geometry">
            <mxRectangle width="620" height="40" as="alternateBounds" />
          </mxGeometry>
        </mxCell>
        <mxCell id="3Auh62VzX7TEnJ0cLqzE-102" value="Заранее определить требования по пропускной способности сети, за сетевое оборудование должен обслуживать персонал с достаточным уровнем квалификации" style="shape=partialRectangle;html=1;whiteSpace=wrap;connectable=0;strokeColor=inherit;overflow=hidden;fillColor=none;top=0;left=0;bottom=0;right=0;pointerEvents=1;fontSize=12;" vertex="1" parent="3Auh62VzX7TEnJ0cLqzE-98">
          <mxGeometry x="860" width="720" height="40" as="geometry">
            <mxRectangle width="720" height="40" as="alternateBounds" />
          </mxGeometry>
        </mxCell>
        <mxCell id="3Auh62VzX7TEnJ0cLqzE-103" style="shape=tableRow;horizontal=0;startSize=0;swimlaneHead=0;swimlaneBody=0;strokeColor=inherit;top=0;left=0;bottom=0;right=0;collapsible=0;dropTarget=0;fillColor=none;points=[[0,0.5],[1,0.5]];portConstraint=eastwest;fontSize=12;" vertex="1" parent="3Auh62VzX7TEnJ0cLqzE-35">
          <mxGeometry y="430" width="1580" height="40" as="geometry" />
        </mxCell>
        <mxCell id="3Auh62VzX7TEnJ0cLqzE-104" value="Процессы" style="shape=partialRectangle;html=1;whiteSpace=wrap;connectable=0;strokeColor=inherit;overflow=hidden;fillColor=none;top=0;left=0;bottom=0;right=0;pointerEvents=1;fontSize=12;" vertex="1" parent="3Auh62VzX7TEnJ0cLqzE-103">
          <mxGeometry width="130" height="40" as="geometry">
            <mxRectangle width="130" height="40" as="alternateBounds" />
          </mxGeometry>
        </mxCell>
        <mxCell id="3Auh62VzX7TEnJ0cLqzE-105" value="Средний" style="shape=partialRectangle;html=1;whiteSpace=wrap;connectable=0;strokeColor=inherit;overflow=hidden;fillColor=none;top=0;left=0;bottom=0;right=0;pointerEvents=1;fontSize=12;" vertex="1" parent="3Auh62VzX7TEnJ0cLqzE-103">
          <mxGeometry x="130" width="110" height="40" as="geometry">
            <mxRectangle width="110" height="40" as="alternateBounds" />
          </mxGeometry>
        </mxCell>
        <mxCell id="3Auh62VzX7TEnJ0cLqzE-106" value="&lt;span style=&quot;background-color: rgb(255, 255, 255);&quot;&gt;Недостаточное покрытие нагрузочным тестированием.&lt;/span&gt;" style="shape=partialRectangle;html=1;whiteSpace=wrap;connectable=0;strokeColor=inherit;overflow=hidden;fillColor=none;top=0;left=0;bottom=0;right=0;pointerEvents=1;fontSize=12;" vertex="1" parent="3Auh62VzX7TEnJ0cLqzE-103">
          <mxGeometry x="240" width="620" height="40" as="geometry">
            <mxRectangle width="620" height="40" as="alternateBounds" />
          </mxGeometry>
        </mxCell>
        <mxCell id="3Auh62VzX7TEnJ0cLqzE-107" value="Выявить потенциально узкие места, определить требования по нагрузке. Тестирование должны проводить специалисты с достаточным уровнем квалицикации" style="shape=partialRectangle;html=1;whiteSpace=wrap;connectable=0;strokeColor=inherit;overflow=hidden;fillColor=none;top=0;left=0;bottom=0;right=0;pointerEvents=1;fontSize=12;" vertex="1" parent="3Auh62VzX7TEnJ0cLqzE-103">
          <mxGeometry x="860" width="720" height="40" as="geometry">
            <mxRectangle width="720" height="40" as="alternateBounds" />
          </mxGeometry>
        </mxCell>
        <mxCell id="3Auh62VzX7TEnJ0cLqzE-108" style="shape=tableRow;horizontal=0;startSize=0;swimlaneHead=0;swimlaneBody=0;strokeColor=inherit;top=0;left=0;bottom=0;right=0;collapsible=0;dropTarget=0;fillColor=none;points=[[0,0.5],[1,0.5]];portConstraint=eastwest;fontSize=12;" vertex="1" parent="3Auh62VzX7TEnJ0cLqzE-35">
          <mxGeometry y="470" width="1580" height="40" as="geometry" />
        </mxCell>
        <mxCell id="3Auh62VzX7TEnJ0cLqzE-109" value="Процессы" style="shape=partialRectangle;html=1;whiteSpace=wrap;connectable=0;strokeColor=inherit;overflow=hidden;fillColor=none;top=0;left=0;bottom=0;right=0;pointerEvents=1;fontSize=12;" vertex="1" parent="3Auh62VzX7TEnJ0cLqzE-108">
          <mxGeometry width="130" height="40" as="geometry">
            <mxRectangle width="130" height="40" as="alternateBounds" />
          </mxGeometry>
        </mxCell>
        <mxCell id="3Auh62VzX7TEnJ0cLqzE-110" value="Низкий" style="shape=partialRectangle;html=1;whiteSpace=wrap;connectable=0;strokeColor=inherit;overflow=hidden;fillColor=none;top=0;left=0;bottom=0;right=0;pointerEvents=1;fontSize=12;" vertex="1" parent="3Auh62VzX7TEnJ0cLqzE-108">
          <mxGeometry x="130" width="110" height="40" as="geometry">
            <mxRectangle width="110" height="40" as="alternateBounds" />
          </mxGeometry>
        </mxCell>
        <mxCell id="3Auh62VzX7TEnJ0cLqzE-111" value="&lt;span style=&quot;background-color: rgb(255, 255, 255);&quot;&gt;Некорректная балансировка нагрузки. Ошибки в настройках политиках масштабируемости.&lt;/span&gt;" style="shape=partialRectangle;html=1;whiteSpace=wrap;connectable=0;strokeColor=inherit;overflow=hidden;fillColor=none;top=0;left=0;bottom=0;right=0;pointerEvents=1;fontSize=12;" vertex="1" parent="3Auh62VzX7TEnJ0cLqzE-108">
          <mxGeometry x="240" width="620" height="40" as="geometry">
            <mxRectangle width="620" height="40" as="alternateBounds" />
          </mxGeometry>
        </mxCell>
        <mxCell id="3Auh62VzX7TEnJ0cLqzE-112" value="Могут быть исправлены по результатам нагрузочного тестирования или в процессе эксплуатации. Должен быть интегрирован мониторинг производительности и алертинг." style="shape=partialRectangle;html=1;whiteSpace=wrap;connectable=0;strokeColor=inherit;overflow=hidden;fillColor=none;top=0;left=0;bottom=0;right=0;pointerEvents=1;fontSize=12;" vertex="1" parent="3Auh62VzX7TEnJ0cLqzE-108">
          <mxGeometry x="860" width="720" height="40" as="geometry">
            <mxRectangle width="720" height="40" as="alternateBounds" />
          </mxGeometry>
        </mxCell>
        <mxCell id="3Auh62VzX7TEnJ0cLqzE-113" style="shape=tableRow;horizontal=0;startSize=0;swimlaneHead=0;swimlaneBody=0;strokeColor=inherit;top=0;left=0;bottom=0;right=0;collapsible=0;dropTarget=0;fillColor=none;points=[[0,0.5],[1,0.5]];portConstraint=eastwest;fontSize=12;" vertex="1" parent="3Auh62VzX7TEnJ0cLqzE-35">
          <mxGeometry y="510" width="1580" height="40" as="geometry" />
        </mxCell>
        <mxCell id="3Auh62VzX7TEnJ0cLqzE-114" value="Интеграция" style="shape=partialRectangle;html=1;whiteSpace=wrap;connectable=0;strokeColor=inherit;overflow=hidden;fillColor=none;top=0;left=0;bottom=0;right=0;pointerEvents=1;fontSize=12;" vertex="1" parent="3Auh62VzX7TEnJ0cLqzE-113">
          <mxGeometry width="130" height="40" as="geometry">
            <mxRectangle width="130" height="40" as="alternateBounds" />
          </mxGeometry>
        </mxCell>
        <mxCell id="3Auh62VzX7TEnJ0cLqzE-115" value="Средний" style="shape=partialRectangle;html=1;whiteSpace=wrap;connectable=0;strokeColor=inherit;overflow=hidden;fillColor=none;top=0;left=0;bottom=0;right=0;pointerEvents=1;fontSize=12;" vertex="1" parent="3Auh62VzX7TEnJ0cLqzE-113">
          <mxGeometry x="130" width="110" height="40" as="geometry">
            <mxRectangle width="110" height="40" as="alternateBounds" />
          </mxGeometry>
        </mxCell>
        <mxCell id="3Auh62VzX7TEnJ0cLqzE-116" value="&lt;span style=&quot;background-color: rgb(255, 255, 255);&quot;&gt;Непроизводительные (медленные) сторонние АПИ&lt;/span&gt;" style="shape=partialRectangle;html=1;whiteSpace=wrap;connectable=0;strokeColor=inherit;overflow=hidden;fillColor=none;top=0;left=0;bottom=0;right=0;pointerEvents=1;fontSize=12;" vertex="1" parent="3Auh62VzX7TEnJ0cLqzE-113">
          <mxGeometry x="240" width="620" height="40" as="geometry">
            <mxRectangle width="620" height="40" as="alternateBounds" />
          </mxGeometry>
        </mxCell>
        <mxCell id="3Auh62VzX7TEnJ0cLqzE-117" value="Перейти на асинхронное взаимодействие, чтобы не снижать производительность системы в целом. Дать фидбэк поставщику АПИ." style="shape=partialRectangle;html=1;whiteSpace=wrap;connectable=0;strokeColor=inherit;overflow=hidden;fillColor=none;top=0;left=0;bottom=0;right=0;pointerEvents=1;fontSize=12;" vertex="1" parent="3Auh62VzX7TEnJ0cLqzE-113">
          <mxGeometry x="860" width="720" height="40" as="geometry">
            <mxRectangle width="720" height="40" as="alternateBounds" />
          </mxGeometry>
        </mxCell>
        <mxCell id="3Auh62VzX7TEnJ0cLqzE-118" style="shape=tableRow;horizontal=0;startSize=0;swimlaneHead=0;swimlaneBody=0;strokeColor=inherit;top=0;left=0;bottom=0;right=0;collapsible=0;dropTarget=0;fillColor=none;points=[[0,0.5],[1,0.5]];portConstraint=eastwest;fontSize=12;" vertex="1" parent="3Auh62VzX7TEnJ0cLqzE-35">
          <mxGeometry y="550" width="1580" height="40" as="geometry" />
        </mxCell>
        <mxCell id="3Auh62VzX7TEnJ0cLqzE-119" value="Интеграция" style="shape=partialRectangle;html=1;whiteSpace=wrap;connectable=0;strokeColor=inherit;overflow=hidden;fillColor=none;top=0;left=0;bottom=0;right=0;pointerEvents=1;fontSize=12;" vertex="1" parent="3Auh62VzX7TEnJ0cLqzE-118">
          <mxGeometry width="130" height="40" as="geometry">
            <mxRectangle width="130" height="40" as="alternateBounds" />
          </mxGeometry>
        </mxCell>
        <mxCell id="3Auh62VzX7TEnJ0cLqzE-120" value="Низкий" style="shape=partialRectangle;html=1;whiteSpace=wrap;connectable=0;strokeColor=inherit;overflow=hidden;fillColor=none;top=0;left=0;bottom=0;right=0;pointerEvents=1;fontSize=12;" vertex="1" parent="3Auh62VzX7TEnJ0cLqzE-118">
          <mxGeometry x="130" width="110" height="40" as="geometry">
            <mxRectangle width="110" height="40" as="alternateBounds" />
          </mxGeometry>
        </mxCell>
        <mxCell id="3Auh62VzX7TEnJ0cLqzE-121" value="&lt;span style=&quot;background-color: rgb(255, 255, 255);&quot;&gt;Непроизводительные (медленные) legacy-решения&lt;/span&gt;" style="shape=partialRectangle;html=1;whiteSpace=wrap;connectable=0;strokeColor=inherit;overflow=hidden;fillColor=none;top=0;left=0;bottom=0;right=0;pointerEvents=1;fontSize=12;" vertex="1" parent="3Auh62VzX7TEnJ0cLqzE-118">
          <mxGeometry x="240" width="620" height="40" as="geometry">
            <mxRectangle width="620" height="40" as="alternateBounds" />
          </mxGeometry>
        </mxCell>
        <mxCell id="3Auh62VzX7TEnJ0cLqzE-122" value="Постепенно переходить с legacy-решений. Перейти на асинхронное взаимодействие, чтобы не снижать производительность системы в целом." style="shape=partialRectangle;html=1;whiteSpace=wrap;connectable=0;strokeColor=inherit;overflow=hidden;fillColor=none;top=0;left=0;bottom=0;right=0;pointerEvents=1;fontSize=12;" vertex="1" parent="3Auh62VzX7TEnJ0cLqzE-118">
          <mxGeometry x="860" width="720" height="40" as="geometry">
            <mxRectangle width="720" height="40" as="alternateBounds" />
          </mxGeometry>
        </mxCell>
        <mxCell id="3Auh62VzX7TEnJ0cLqzE-97" value="немасштабируемые инфрастуктурные элементы" style="text;html=1;align=center;verticalAlign=middle;whiteSpace=wrap;rounded=0;labelBackgroundColor=default;" vertex="1" parent="1">
          <mxGeometry x="60" y="260" width="150" height="80" as="geometry" />
        </mxCell>
      </root>
    </mxGraphModel>
  </diagram>
</mxfile>
